<svg width="30" height="30" viewBox="0 0 30 30" fill="none" xmlns="http://www.w3.org/2000/svg">
<path d="M26.2413 16.6412C24.9785 16.9662 23.6528 16.9563 22.395 16.6126C21.1373 16.2689 19.9908 15.6032 19.0688 14.6812C18.1468 13.7592 17.4811 12.6127 17.1374 11.3549C16.7937 10.0972 16.7838 8.77149 17.1088 7.50873C15.4132 7.58462 13.7763 8.15201 12.3975 9.14176C11.0187 10.1315 9.95748 11.5009 9.3432 13.0831C8.72891 14.6653 8.58804 16.392 8.93776 18.0529C9.28747 19.7137 10.1127 21.237 11.3128 22.4372C12.513 23.6373 14.0363 24.4625 15.6971 24.8122C17.358 25.1619 19.0847 25.0211 20.6669 24.4068C22.2491 23.7925 23.6185 22.7313 24.6082 21.3525C25.598 19.9737 26.1654 18.3368 26.2413 16.6412Z" fill="#1C1C1C"/>
<path fill-rule="evenodd" clip-rule="evenodd" d="M5.625 10.3125C5.79076 10.3125 5.94973 10.3783 6.06694 10.4956C6.18415 10.6128 6.25 10.7717 6.25 10.9375V12.8125C6.25 12.9783 6.18415 13.1372 6.06694 13.2544C5.94973 13.3717 5.79076 13.4375 5.625 13.4375C5.45924 13.4375 5.30027 13.3717 5.18306 13.2544C5.06585 13.1372 5 12.9783 5 12.8125V10.9375C5 10.7717 5.06585 10.6128 5.18306 10.4956C5.30027 10.3783 5.45924 10.3125 5.625 10.3125Z" fill="#1C1C1C"/>
<path fill-rule="evenodd" clip-rule="evenodd" d="M4.0625 11.875C4.0625 11.7092 4.12835 11.5503 4.24556 11.4331C4.36277 11.3158 4.52174 11.25 4.6875 11.25H6.5625C6.72826 11.25 6.88723 11.3158 7.00444 11.4331C7.12165 11.5503 7.1875 11.7092 7.1875 11.875C7.1875 12.0408 7.12165 12.1997 7.00444 12.3169C6.88723 12.4342 6.72826 12.5 6.5625 12.5H4.6875C4.52174 12.5 4.36277 12.4342 4.24556 12.3169C4.12835 12.1997 4.0625 12.0408 4.0625 11.875ZM9.375 3.75C9.54076 3.75 9.69973 3.81585 9.81694 3.93306C9.93415 4.05027 10 4.20924 10 4.375V6.875C10 7.04076 9.93415 7.19973 9.81694 7.31694C9.69973 7.43415 9.54076 7.5 9.375 7.5C9.20924 7.5 9.05027 7.43415 8.93306 7.31694C8.81585 7.19973 8.75 7.04076 8.75 6.875V4.375C8.75 4.20924 8.81585 4.05027 8.93306 3.93306C9.05027 3.81585 9.20924 3.75 9.375 3.75Z" fill="#1C1C1C"/>
<path fill-rule="evenodd" clip-rule="evenodd" d="M7.5 5.625C7.5 5.45924 7.56585 5.30027 7.68306 5.18306C7.80027 5.06585 7.95924 5 8.125 5H10.625C10.7908 5 10.9497 5.06585 11.0669 5.18306C11.1842 5.30027 11.25 5.45924 11.25 5.625C11.25 5.79076 11.1842 5.94973 11.0669 6.06694C10.9497 6.18415 10.7908 6.25 10.625 6.25H8.125C7.95924 6.25 7.80027 6.18415 7.68306 6.06694C7.56585 5.94973 7.5 5.79076 7.5 5.625Z" fill="#1C1C1C"/>
</svg>
